<svg width="24" height="24" viewBox="0 0 24 24" fill="none" xmlns="http://www.w3.org/2000/svg">
<g clip-path="url(#clip0_8755_1278)">
<path d="M12 9.81836V14.4656H18.4582C18.1746 15.9602 17.3236 17.2257 16.0472 18.0766L19.9417 21.0984C22.2108 19.0039 23.5199 15.9276 23.5199 12.273C23.5199 11.4221 23.4436 10.6039 23.3017 9.81849L12 9.81836Z" fill="#4285F4"/>
<path d="M5.27657 14.2842L4.3982 14.9566L1.28906 17.3783C3.2636 21.2947 7.31058 24.0002 12.0014 24.0002C15.2414 24.0002 17.9577 22.9311 19.9432 21.0984L16.0487 18.0765C14.9796 18.7965 13.6159 19.2329 12.0014 19.2329C8.88146 19.2329 6.23063 17.1275 5.28147 14.2911L5.27657 14.2842Z" fill="#34A853"/>
<path d="M1.28718 6.62207C0.469042 8.23655 0 10.0584 0 12.0002C0 13.942 0.469042 15.7638 1.28718 17.3783C1.28718 17.3891 5.27997 14.2801 5.27997 14.2801C5.03998 13.5601 4.89812 12.7965 4.89812 12.0001C4.89812 11.2036 5.03998 10.44 5.27997 9.72L1.28718 6.62207Z" fill="#FBBC05"/>
<path d="M12.0017 4.77818C13.769 4.77818 15.3399 5.38907 16.5944 6.56727L20.0307 3.13095C17.9471 1.18917 15.2417 0 12.0017 0C7.31082 0 3.2636 2.69454 1.28906 6.62183L5.28174 9.72001C6.23077 6.88362 8.88171 4.77818 12.0017 4.77818Z" fill="#EA4335"/>
</g>
<defs>
<clipPath id="clip0_8755_1278">
<rect width="24" height="24" fill="white"/>
</clipPath>
</defs>
</svg>
